<svg xmlns="http://www.w3.org/2000/svg" width="253.135" height="29.885" xmlns:xlink="http://www.w3.org/1999/xlink" viewBox="0 0 253.135 29.885">
  <g fill="#FFF">
    <path d="M8.72 14.988c0 1.09-.905 1.967-1.968 1.967H3.19v7.735H0V6.084h6.75c1.064 0 1.968.877 1.968 1.967v6.938zM5.5 9.273H3.19v4.492h2.312V9.273zM17.542 6.084c1.063 0 1.967.877 1.967 1.967v14.674c0 1.063-.905 1.967-1.968 1.967h-4.785c-1.09 0-1.967-.902-1.967-1.966V8.05c0-1.09.877-1.966 1.967-1.966h4.785zm-1.25 3.19H13.98v12.2h2.312v-12.2zM33.223 6.084h3.216l-.505 18.606h-6.06l-.825-7.682-.824 7.682H22.14l-.48-18.606h3.19l.267 15.39h.346l1.994-15.39h3.163l2.046 15.39h.32l.237-15.39zM47.31 21.475v3.216h-8.72V6.085h8.72v3.19h-5.53v4.49h4.413v3.19H41.78v4.52h5.53zM55.097 24.69l-1.302-7.735h-1.223v7.735h-3.19V6.084h6.75c1.064 0 1.94.877 1.94 1.967v6.966c0 .744-.424 1.435-1.115 1.754l1.33 7.92h-3.19zm-.213-15.417h-2.312v4.492h2.312V9.273zM60.704 6.084h3.19V24.69h-3.19V6.084zM75.27 6.084V24.69h-3.19l-2.34-8.134v8.134h-3.19V6.084h3.164l2.34 7.63v-7.63h3.216zM84.73 14.856c1.064 0 1.968.904 1.968 1.967v5.9c0 1.064-.903 1.968-1.967 1.968h-4.784c-1.09 0-1.967-.902-1.967-1.966V8.05c0-1.09.876-1.966 1.966-1.966h4.785c1.064 0 1.968.877 1.968 1.967v3.776l-3.216.744V9.273H81.17v12.2h2.312v-3.4h-1.728l.61-3.218h2.367zM103.494 6.084v16.64c0 1.063-.903 1.967-1.967 1.967h-4.785c-1.09 0-1.967-.902-1.967-1.966V6.084h3.19v15.39h2.312V6.085h3.217zM114.95 14.988c0 1.09-.904 1.967-1.968 1.967h-3.562v7.735h-3.19V6.084h6.752c1.063 0 1.967.877 1.967 1.967v6.938zm-3.217-5.715h-2.312v4.492h2.313V9.273z"/>
  </g>
  <g fill="#FFF">
    <path d="M131.032 14.91c0 1.308-1.035 2.502-1.035 2.916 0 .43.16.638.605.638.445 0 1.035-.462 1.322-.75.047-.047.175-.143.238-.143.08 0 .08.16.08.24 0 .62-1.163 1.227-1.72 1.227-.495 0-.83-.16-.973-.637-.67.86-1.69 1.815-2.805 1.815-.414 0-.558-.27-.558-.685 0-.542.35-1.45.525-1.943l-.03-.032c-.622.686-2.072 2.66-3.076 2.66-.318 0-.652-.11-.652-.51 0-.493.59-1.704.748-2.198l-.03-.032c-.08.096-.702.893-.91.893-.11 0-.143-.223-.143-.35 0-.05.047-.208.317-.447.224-.206 1.29-1.16 1.466-1.576.255-.573.653-1.45.765-1.45.19 0 .383 0 .558.064-.287.686-2.04 4.444-2.04 4.747 0 .096.017.224.097.224.573 0 2.963-2.948 3.695-4.096.112-.175.255-.366.48-.366.19 0 .237.19.237.35 0 .384-1.37 3.362-1.37 3.92 0 .144.144.19.272.19.796 0 2.246-1.783 2.262-2.038.11-1.004.796-2.932 1.513-2.932.16 0 .16.128.16.303z"/>
    <path d="M135.042 14.608l-1.99 4.365c-.112.223-.16.382-.16.43 0 .032.017.08.063.08.255 0 2.008-1.338 2.565-1.784.08-.064.144-.08.19-.08.064 0 .064.206.064.397 0 .318-2.708 2.198-3.234 2.198-.35 0-.51-.11-.51-.366 0-.447.765-1.912.956-2.343l-.032-.032c-.16.128-.907.925-1.035.925-.097 0-.176-.112-.176-.32 0-.317 1.72-1.687 1.88-2.006l.67-1.466h.748zm-.415-1.56c0-.335.24-.765.59-.765.24 0 .366.24.366.446 0 .365-.19.764-.605.764-.255 0-.35-.207-.35-.446z"/>
    <path d="M138.56 13.016c.19-.446 1.02-3.377 1.594-3.377.16 0 .255.11.255.286 0 .717-.925 2.31-1.132 3.09h1.003c.065 0 .065.08.065.176 0 .223-.144.397-.415.397h-.876c-.286.748-2.31 5.304-2.31 5.686 0 .144.127.207.255.207.59 0 2.437-1.61 2.644-1.816.048-.048.144-.11.223-.11.063 0 .063.175.063.238 0 .334-.19.462-.414.67-.605.557-2.246 1.75-3.106 1.75-.238 0-.525-.047-.525-.35 0-.732.812-2.103 1.052-2.82l-.032-.03-1.29 1.258c-.063.063-.128.096-.19.096-.08-.08-.08-.224-.08-.43 0-.225 1.943-1.833 2.166-2.407l.798-1.943h-.988c-.238 0-.366-.063-.366-.238 0-.144.11-.335.287-.335h1.32z"/>
    <path d="M140.708 18.607l.032.03c.7-.78 4.046-4.14 4.923-4.14.286 0 .397.158.397.365 0 .128-1.736 3.823-1.975 4.43-.032.08-.032.19.048.19.51 0 2.47-1.705 2.724-1.928.048-.032.08.032.08.16 0 .238.016.397-.224.637-.43.43-2.373 1.864-3.043 1.864-.318 0-.478-.11-.478-.462 0-.318 1.673-3.505 1.816-4.078.016-.063.03-.144-.064-.144-.063 0-1.593 1.21-2.69 2.342l-1.5 1.546c-.27.286-.716.796-.954.796-.128 0-.32-.096-.303-.238.048-.415.717-1.705.892-2.23l.062-.19c-.223.222-.844.844-.907.844-.112 0-.16-.08-.16-.367 0-.334 1.514-1.32 1.832-2.07l2.39-5.703c.144-.35.542-1.545.988-1.545.16 0 .255.127.255.334 0 .604-1.115 2.708-2.39 5.59l-1.752 3.967z"/>
  </g>
  <path fill="#1D76BB" d="M179.992 4.69l2.262 2.53h-3.41l-2.262-2.53"/>
  <defs>
    <path id="a" d="M184.05.918l2.263 2.532c.46.516.732 1.21.706 1.974l-2.263-2.532c.026-.765-.245-1.458-.706-1.974z"/>
  </defs>
  <clipPath id="b">
    <use xlink:href="#a" overflow="visible"/>
  </clipPath>
  <g clip-path="url(#b)">
    <path fill="#1E1E67" d="M184.05.918l2.263 2.532c.043.048.084.097.123.148l-2.262-2.532c-.04-.05-.08-.1-.123-.148"/>
    <path fill="#2E368F" d="M184.174 1.066l2.262 2.532c.385.497.606 1.132.583 1.826l-2.263-2.532c.024-.694-.197-1.33-.583-1.826"/>
  </g>
  <path fill="#2E368F" d="M176.582 4.69l2.262 2.53-.223 6.605-2.26-2.532"/>
  <path fill="#1D76BB" d="M178.004 15.982l2.262 2.532h-1.804l-2.26-2.532"/>
  <path fill="#2E368F" d="M184.758 2.892l2.26 2.532-.344 10.238-2.262-2.532"/>
  <defs>
    <path id="c" d="M184.412 13.13l2.262 2.532c-.037 1.094-.698 2.11-1.734 2.58l-2.262-2.533c1.035-.47 1.697-1.486 1.734-2.58z"/>
  </defs>
  <use fill="#2E368F" xlink:href="#c" overflow="visible"/>
  <clipPath id="d">
    <use xlink:href="#c" overflow="visible"/>
  </clipPath>
  <g clip-path="url(#d)">
    <path fill="#2E368F" d="M184.412 13.13l2.262 2.532c0 .035-.003.07-.005.104l-2.263-2.532.005-.104"/>
    <path fill="#2E368F" d="M184.407 13.233l2.262 2.532c-.012.157-.036.313-.072.465l-2.262-2.532c.036-.152.06-.307.07-.465"/>
    <path fill="#2E368F" d="M184.336 13.698l2.262 2.532c-.03.128-.07.253-.116.376l-2.262-2.532c.047-.123.085-.248.116-.376"/>
    <path fill="#2E368F" d="M184.22 14.074l2.262 2.532c-.044.114-.095.225-.152.333l-2.262-2.533c.057-.108.108-.22.152-.333M184.067 14.406l2.262 2.532c-.058.107-.123.212-.193.31l-2.262-2.53c.07-.1.135-.204.192-.312"/>
    <path fill="#1D76BB" d="M183.875 14.718l2.262 2.532c-.075.106-.157.207-.245.303l-2.262-2.532c.09-.095.17-.196.245-.302"/>
    <path fill="#1D76BB" d="M183.63 15.02l2.262 2.533c-.105.114-.22.22-.342.316l-2.262-2.533c.123-.096.238-.202.342-.316"/>
    <path fill="#1D76BB" d="M183.29 15.337l2.26 2.532c-.184.145-.388.27-.61.37l-2.26-2.532c.22-.1.424-.225.61-.37"/>
  </g>
  <path fill="#1D76BB" d="M175.817 27.353l2.262 2.532h-4.706l-2.262-2.532"/>
  <path fill="#2E368F" d="M176.2 15.982l2.262 2.532-.383 11.37-2.263-2.53"/>
  <path fill="#1D76BB" d="M184.245 27.353l2.262 2.532h-4.704l-2.262-2.532"/>
  <path fill="#2E368F" d="M182.678 15.71l2.262 2.53 1.567 11.645-2.262-2.532M192.812 4.69l2.262 2.53-.223 6.605-2.26-2.532M201.124 0l2.262 2.532-.158 4.69-2.262-2.533"/>
  <path fill="#1D76BB" d="M200.966 4.69l2.262 2.53h-8.154l-2.262-2.53"/>
  <path fill="#2E368F" d="M199.097 11.293l2.26 2.532-.157 4.69-2.262-2.533"/>
  <path fill="#1D76BB" d="M198.938 15.982l2.262 2.532h-6.507l-2.262-2.532"/>
  <path fill="#2E368F" d="M192.43 15.982l2.263 2.532-.225 6.643-2.262-2.532"/>
  <path fill="#1D76BB" d="M200.2 27.353l2.263 2.532h-12.86l-2.26-2.532"/>
  <path fill="#2E368F" d="M200.36 22.625l2.263 2.532-.16 4.728-2.262-2.532"/>
  <path fill="#1D76BB" d="M211.904 4.69l2.262 2.53h-3.41l-2.263-2.53"/>
  <defs>
    <path id="e" d="M216.002.94l2.262 2.53c.46.515.73 1.2.706 1.954l-2.262-2.532c.025-.755-.247-1.44-.706-1.953z"/>
  </defs>
  <clipPath id="f">
    <use xlink:href="#e" overflow="visible"/>
  </clipPath>
  <g clip-path="url(#f)">
    <path fill="#1E1E67" d="M216.002.94l2.262 2.53c.043.05.085.1.125.15l-2.263-2.53c-.04-.053-.08-.103-.125-.15"/>
    <path fill="#2E368F" d="M216.127 1.09l2.262 2.53c.382.495.603 1.12.58 1.804l-2.262-2.532c.023-.683-.198-1.31-.58-1.803"/>
  </g>
  <path fill="#2E368F" d="M216.708 2.892l2.262 2.532-.036 1.055-2.262-2.533M208.493 4.69l2.262 2.53-.332 9.848-2.262-2.532M216.672 3.947l2.262 2.532-.148 4.375-2.26-2.532"/>
  <path fill="#1D76BB" d="M211.413 19.226l2.262 2.53h-3.41L208 19.227"/>
  <path fill="#2E368F" d="M208.002 19.226l2.262 2.53-.274 8.13-2.262-2.533"/>
  <path fill="#1D76BB" d="M207.728 27.353l2.262 2.532h-4.704l-2.262-2.532M215.882 27.353l2.262 2.532H213.4l-2.26-2.532"/>
  <path fill="#2E368F" d="M216.525 8.323l2.26 2.532-.64 19.03-2.263-2.532"/>
  <path fill="#1D76BB" d="M228.76 4.69l2.263 2.53h-3.41l-2.263-2.53"/>
  <defs>
    <path id="g" d="M232.86.94l2.26 2.53c.46.515.732 1.2.707 1.954l-2.262-2.532c.026-.755-.247-1.44-.706-1.953z"/>
  </defs>
  <clipPath id="h">
    <use xlink:href="#g" overflow="visible"/>
  </clipPath>
  <g clip-path="url(#h)">
    <path fill="#1E1E67" d="M232.86.94l2.26 2.53c.044.05.086.1.126.15l-2.262-2.53c-.04-.053-.08-.103-.125-.15"/>
    <path fill="#2E368F" d="M232.985 1.09l2.262 2.53c.383.495.604 1.12.58 1.804l-2.26-2.532c.02-.683-.2-1.31-.582-1.803"/>
  </g>
  <path fill="#2E368F" d="M233.565 2.892l2.262 2.532-.187 5.548-2.262-2.53"/>
  <path fill="#1D76BB" d="M233.378 8.44l2.262 2.532-4.78 1.095-2.263-2.532"/>
  <path fill="#2E368F" d="M225.35 4.69l2.262 2.53-.605 17.937-2.262-2.532"/>
  <defs>
    <path id="i" d="M222.95 28.95l-2.26-2.53c.51.57 1.25.933 2.092.933l2.262 2.532c-.84 0-1.584-.363-2.093-.934z"/>
  </defs>
  <clipPath id="j">
    <use xlink:href="#i" overflow="visible"/>
  </clipPath>
  <g clip-path="url(#j)">
    <path fill="#1D76BB" d="M222.782 27.353l2.262 2.532c-.84 0-1.583-.364-2.093-.934l-2.26-2.53c.51.57 1.25.933 2.092.933"/>
  </g>
  <g>
    <path fill="#2E368F" d="M233.117 16.178l2.262 2.53-.28 8.286-2.263-2.532"/>
  </g>
  <g>
    <path fill="#1D76BB" d="M229.84 27.353l2.26 2.532h-7.056l-2.262-2.532"/>
  </g>
  <g>
    <defs>
      <path id="k" d="M232.837 24.462l2.262 2.532c-.054 1.563-1.43 2.892-3 2.892l-2.262-2.532c1.57 0 2.946-1.33 3-2.892z"/>
    </defs>
    <use fill="#2E368F" xlink:href="#k" overflow="visible"/>
    <clipPath id="l">
      <use xlink:href="#k" overflow="visible"/>
    </clipPath>
    <g clip-path="url(#l)">
      <path fill="#2E368F" d="M232.837 24.462l2.262 2.532-.006.097-2.262-2.53.005-.098"/>
      <path fill="#2E368F" d="M232.832 24.56l2.262 2.53c-.01.154-.034.305-.07.452l-2.26-2.532c.034-.148.058-.298.068-.45"/>
      <path fill="#2E368F" d="M232.764 25.01l2.262 2.53c-.03.127-.068.25-.115.372l-2.26-2.532c.045-.12.084-.244.114-.37M232.65 25.38l2.26 2.532c-.043.115-.095.228-.153.337l-2.262-2.533c.058-.11.11-.222.154-.337"/>
      <path fill="#2E368F" d="M232.495 25.717l2.262 2.532c-.06.11-.126.22-.2.322l-2.262-2.532c.074-.104.14-.212.2-.323M232.295 26.04l2.262 2.532c-.08.113-.167.22-.26.322l-2.263-2.532c.095-.1.182-.21.26-.322"/>
      <path fill="#1D76BB" d="M232.035 26.362l2.262 2.532c-.114.123-.237.237-.368.34l-2.263-2.53c.13-.105.254-.22.368-.342"/>
      <path fill="#1D76BB" d="M231.666 26.703l2.262 2.532c-.514.405-1.153.65-1.828.65l-2.262-2.53c.675-.002 1.315-.247 1.828-.652"/>
    </g>
  </g>
  <g>
    <path fill="#1D76BB" d="M241.11 4.69l2.262 2.53h-4.86l-2.263-2.53"/>
    <path fill="#2E368F" d="M250.873 0l2.262 2.532-.158 4.69-2.262-2.533"/>
    <path fill="#1D76BB" d="M250.715 4.69l2.262 2.53h-4.862l-2.26-2.53"/>
    <path fill="#2E368F" d="M245.854 4.69l2.26 2.53-.764 22.665-2.26-2.532"/>
    <path fill="#1D76BB" d="M245.09 27.353l2.26 2.532h-4.743l-2.262-2.532"/>
  </g>
  <g>
    <path fill="#8DD4DE" d="M230.762 0c1.568 0 2.858 1.29 2.803 2.892l-.187 5.55-4.78 1.093.164-4.845h-3.41l-.606 17.936h3.41l.182-5.353 4.78-1.094-.28 8.283c-.052 1.563-1.43 2.892-2.998 2.892h-7.057c-1.607 0-2.856-1.33-2.803-2.892l.728-21.57C220.76 1.29 222.098 0 223.705 0h7.057z"/>
  </g>
  <g>
    <path fill="#8DD4DE" d="M250.873 0l-.158 4.69h-4.86l-.766 22.663h-4.745l.765-22.664h-4.86l.157-4.69"/>
  </g>
  <g>
    <path fill="#8DD4DE" d="M213.905 0c1.568 0 2.857 1.29 2.803 2.892l-.036 1.055-.148 4.377-.642 19.03h-4.744l.274-8.128h-3.41l-.275 8.128h-4.704l.826-24.462C203.902 1.29 205.24 0 206.847 0h7.057zm-2.334 14.536l.333-9.847h-3.41l-.333 9.846h3.41"/>
  </g>
  <g>
    <linearGradient id="m" x1="167.706" x2="167.706" y1="27.334" y2="7.324" gradientUnits="userSpaceOnUse">
      <stop offset="0" stop-color="#FFF"/>
      <stop offset=".383" stop-color="#8DD4DE"/>
      <stop offset=".828" stop-color="#1072BA"/>
      <stop offset=".987" stop-color="#2D499F"/>
    </linearGradient>
    <path fill="url(#m)" d="M170.46 7.323l-.764 20.01h-4.744l.765-20.01"/>
  </g>
  <g>
    <path fill="#8DD4DE" d="M201.124 0l-.158 4.69h-8.154l-.223 6.603h6.507l-.16 4.69h-6.506l-.224 6.642h8.155l-.16 4.728h-12.858L188.266 0"/>
  </g>
  <g>
    <path fill="#8DD4DE" d="M182.678 15.71l1.567 11.644h-4.704l-1.536-11.37H176.2l-.383 11.37h-4.704L172.036 0h9.958c1.568 0 2.818 1.29 2.764 2.892l-.346 10.238c-.037 1.094-.7 2.11-1.734 2.58zm-2.908-4.417l.223-6.604h-3.41l-.224 6.603h3.41"/>
  </g>
  <g>
    <path fill="#1D76BB" d="M169.696 27.334l2.262 2.532h-4.744l-2.262-2.532"/>
  </g>
  <g>
    <linearGradient id="n" x1="161.323" x2="161.323" y1="27.334" y2="13.516" gradientUnits="userSpaceOnUse">
      <stop offset="0" stop-color="#FFF"/>
      <stop offset=".383" stop-color="#8DD4DE"/>
      <stop offset=".828" stop-color="#1072BA"/>
      <stop offset=".987" stop-color="#2D499F"/>
    </linearGradient>
    <path fill="url(#n)" d="M163.886 13.516l-.383 13.818h-4.743l.382-13.818"/>
  </g>
  <g>
    <path fill="#1D76BB" d="M163.503 27.334l2.262 2.532h-4.743l-2.262-2.532"/>
  </g>
  <g>
    <linearGradient id="o" x1="155.131" x2="155.131" y1="27.334" y2="19.708" gradientUnits="userSpaceOnUse">
      <stop offset="0" stop-color="#FFF"/>
      <stop offset=".383" stop-color="#8DD4DE"/>
      <stop offset=".828" stop-color="#1072BA"/>
      <stop offset=".987" stop-color="#2D499F"/>
    </linearGradient>
    <path fill="url(#o)" d="M157.694 19.708l-.383 7.626h-4.742l.382-7.626"/>
  </g>
  <g>
    <path fill="#1D76BB" d="M157.31 27.334l2.263 2.532h-4.744l-2.262-2.532"/>
  </g>
  <g>
    <path fill="none" d="M182.678 15.71l1.567 11.644h-4.704l-1.536-11.37H176.2l-.383 11.37h-4.704L172.036 0h9.958c1.568 0 2.818 1.29 2.764 2.892l-.346 10.238c-.037 1.094-.7 2.11-1.734 2.58zm-2.908-4.417l.223-6.604h-3.41l-.224 6.603h3.41"/>
  </g>
  <g>
    <path fill="none" d="M213.905 0c1.568 0 2.857 1.29 2.803 2.892l-.036 1.055-.148 4.377-.642 19.03h-4.744l.274-8.128h-3.41l-.275 8.128h-4.704l.826-24.462C203.902 1.29 205.24 0 206.847 0h7.057zm-2.334 14.536l.333-9.847h-3.41l-.333 9.846h3.41"/>
  </g>
  <g>
    <path fill="none" d="M230.762 0c1.568 0 2.858 1.29 2.803 2.892l-.187 5.55-4.78 1.093.164-4.845h-3.41l-.606 17.936h3.41l.182-5.353 4.78-1.094-.28 8.283c-.052 1.563-1.43 2.892-2.998 2.892h-7.057c-1.607 0-2.856-1.33-2.803-2.892l.728-21.57C220.76 1.29 222.098 0 223.705 0h7.057z"/>
  </g>
  <g>
    <path fill="none" d="M250.873 0l-.158 4.69h-4.86l-.766 22.663h-4.745l.765-22.664h-4.86l.157-4.69"/>
  </g>
  <linearGradient id="p" x1="243.561" x2="243.561" y1="14.536" gradientUnits="userSpaceOnUse">
    <stop offset="0" stop-color="#FFF"/>
    <stop offset=".37" stop-color="#8DD4DE"/>
    <stop offset="1" stop-color="#3DB54A"/>
  </linearGradient>
  <path fill="url(#p)" d="M240.778 14.536h4.743l.333-9.847h4.862l.158-4.69h-14.466l-.158 4.69h4.86" opacity=".5"/>
  <linearGradient id="q" x1="242.933" x2="242.933" y1="27.354" y2="14.536" gradientUnits="userSpaceOnUse">
    <stop offset="0" stop-color="#FFF"/>
    <stop offset=".383" stop-color="#8DD4DE"/>
    <stop offset=".828" stop-color="#1072BA"/>
    <stop offset=".987" stop-color="#2D499F"/>
  </linearGradient>
  <path fill="url(#q)" d="M240.778 14.536l-.433 12.817h4.744l.43-12.817"/>
  <g>
    <path fill="#FFF" d="M249.958.885l-.1 2.92H245l-.03.855-.735 21.81h-2.973l.734-21.75.03-.914h-4.86l.1-2.92h12.694m.915-.886h-14.466l-.158 4.69h4.86l-.765 22.663h4.744l.764-22.664h4.86l.16-4.69z"/>
  </g>
  <linearGradient id="r" x1="226.94" x2="226.94" y1="14.536" gradientUnits="userSpaceOnUse">
    <stop offset="0" stop-color="#FFF"/>
    <stop offset=".37" stop-color="#8DD4DE"/>
    <stop offset="1" stop-color="#3DB54A"/>
  </linearGradient>
  <path fill="url(#r)" d="M225.018 14.536l.332-9.847h3.41l-.163 4.844 4.78-1.094.188-5.55c.054-1.6-1.235-2.89-2.803-2.89h-7.057c-1.607 0-2.945 1.29-3 2.892l-.392 11.645h4.705z" opacity=".5"/>
  <linearGradient id="s" x1="210.083" x2="210.083" y1="14.536" gradientUnits="userSpaceOnUse">
    <stop offset="0" stop-color="#FFF"/>
    <stop offset=".37" stop-color="#8DD4DE"/>
    <stop offset="1" stop-color="#3DB54A"/>
  </linearGradient>
  <path fill="url(#s)" d="M208.16 14.536l.333-9.847h3.41l-.33 9.846h4.743l.21-6.213.148-4.377.036-1.055c.052-1.6-1.237-2.89-2.805-2.89h-7.057c-1.607 0-2.945 1.29-3 2.892l-.392 11.645h4.705z" opacity=".5"/>
  <linearGradient id="t" x1="226.547" x2="226.547" y1="27.354" y2="14.536" gradientUnits="userSpaceOnUse">
    <stop offset="0" stop-color="#FFF"/>
    <stop offset=".383" stop-color="#8DD4DE"/>
    <stop offset=".828" stop-color="#1072BA"/>
    <stop offset=".987" stop-color="#2D499F"/>
  </linearGradient>
  <path fill="url(#t)" d="M228.156 22.625h-3.41l.272-8.09h-4.704l-.335 9.926c-.054 1.564 1.195 2.893 2.802 2.893h7.057c1.567 0 2.945-1.33 2.998-2.892l.28-8.283-4.78 1.094-.182 5.355z"/>
  <g>
    <path fill="#FFF" d="M230.762.885c.527 0 1.02.21 1.386.588.36.374.55.867.533 1.39l-.163 4.867-2.997.686.125-3.697.03-.915h-5.179l-.03.855-.604 17.936-.03.914h5.181l.03-.855.158-4.673 2.996-.686-.24 7.136c-.038 1.085-1.026 2.037-2.116 2.037h-7.057c-.526 0-1.017-.208-1.38-.584-.365-.377-.556-.872-.54-1.394l.73-21.57c.037-1.123.985-2.037 2.114-2.037h7.058m0-.885h-7.057c-1.607 0-2.945 1.29-3 2.892l-.727 21.57c-.053 1.563 1.196 2.892 2.803 2.892h7.058c1.568 0 2.946-1.33 3-2.892l.28-8.284-4.782 1.094-.18 5.353h-3.412l.605-17.936h3.41l-.164 4.844 4.78-1.094.188-5.55c.055-1.6-1.234-2.89-2.802-2.89z"/>
  </g>
  <linearGradient id="u" x1="194.45" x2="194.45" y1="14.536" gradientUnits="userSpaceOnUse">
    <stop offset="0" stop-color="#FFF"/>
    <stop offset=".37" stop-color="#8DD4DE"/>
    <stop offset="1" stop-color="#3DB54A"/>
  </linearGradient>
  <path fill="url(#u)" d="M198.987 14.536l.11-3.243h-6.508l.222-6.604h8.154l.158-4.69h-12.858l-.49 14.536" opacity=".5"/>
  <linearGradient id="v" x1="209.669" x2="209.669" y1="27.354" y2="14.536" gradientUnits="userSpaceOnUse">
    <stop offset="0" stop-color="#FFF"/>
    <stop offset=".383" stop-color="#8DD4DE"/>
    <stop offset=".828" stop-color="#1072BA"/>
    <stop offset=".987" stop-color="#2D499F"/>
  </linearGradient>
  <path fill="url(#v)" d="M211.57 14.536h-8.114l-.432 12.817h4.704l.274-8.127h3.41l-.273 8.127h4.742l.433-12.817"/>
  <path fill="#FFF" d="M213.905.885c.527 0 1.02.21 1.386.588.362.374.552.867.534 1.39l-.036 1.054-.148 4.377-.613 18.175h-2.973l.243-7.215.03-.914h-5.18l-.03.856-.244 7.273h-2.934l.794-23.548c.038-1.123.987-2.037 2.115-2.037h7.055m-6.66 14.536h5.183l.03-.854.33-9.847.032-.915h-5.182l-.03.855-.33 9.847-.032.914M213.906 0h-7.058c-1.607 0-2.945 1.29-3 2.892l-.825 24.462h4.704l.274-8.128h3.412l-.274 8.128h4.744l.642-19.03.148-4.377.036-1.055C216.762 1.29 215.473 0 213.905 0zm-5.745 14.536l.333-9.847h3.41l-.33 9.846h-3.412z"/>
  <g>
    <linearGradient id="w" x1="184.34" x2="184.34" y1="13.782" y2="13.512" gradientUnits="userSpaceOnUse">
      <stop offset="0" stop-color="#FFF"/>
      <stop offset=".383" stop-color="#8DD4DE"/>
      <stop offset=".828" stop-color="#1072BA"/>
      <stop offset=".987" stop-color="#2D499F"/>
    </linearGradient>
    <path fill="url(#w)" d="M184.372 13.512c-.016.092-.04.18-.064.27.024-.09.048-.18.064-.27z"/>
    <linearGradient id="x" x1="177.679" x2="177.679" y1="27.354" y2="14.209" gradientUnits="userSpaceOnUse">
      <stop offset="0" stop-color="#FFF"/>
      <stop offset=".383" stop-color="#8DD4DE"/>
      <stop offset=".828" stop-color="#1072BA"/>
      <stop offset=".987" stop-color="#2D499F"/>
    </linearGradient>
    <path fill="url(#x)" d="M184.158 14.21c-.05.11-.108.22-.17.326h-12.442l-.433 12.817h4.704l.384-11.37h1.804l1.537 11.37h4.705l-1.567-11.645c.68-.307 1.193-.852 1.48-1.5z"/>
    <linearGradient id="y" x1="184.222" x2="184.222" y1="14.205" y2="13.87" gradientUnits="userSpaceOnUse">
      <stop offset="0" stop-color="#FFF"/>
      <stop offset=".383" stop-color="#8DD4DE"/>
      <stop offset=".828" stop-color="#1072BA"/>
      <stop offset=".987" stop-color="#2D499F"/>
    </linearGradient>
    <path fill="url(#y)" d="M184.16 14.205c.048-.11.09-.22.126-.335-.036.114-.078.226-.126.335z"/>
  </g>
  <linearGradient id="z" x1="178.152" x2="178.152" y1="14.536" gradientUnits="userSpaceOnUse">
    <stop offset="0" stop-color="#FFF"/>
    <stop offset=".37" stop-color="#8DD4DE"/>
    <stop offset="1" stop-color="#3DB54A"/>
  </linearGradient>
  <path fill="url(#z)" d="M183.987 14.536c.255-.423.41-.905.425-1.407l.346-10.24c.054-1.6-1.197-2.89-2.765-2.89h-9.958l-.49 14.536h12.442zm-7.405-9.847h3.41l-.222 6.603h-3.41l.222-6.604z" opacity=".5"/>
  <linearGradient id="A" x1="193.852" x2="193.852" y1="27.354" y2="14.536" gradientUnits="userSpaceOnUse">
    <stop offset="0" stop-color="#FFF"/>
    <stop offset=".383" stop-color="#8DD4DE"/>
    <stop offset=".828" stop-color="#1072BA"/>
    <stop offset=".987" stop-color="#2D499F"/>
  </linearGradient>
  <path fill="url(#A)" d="M192.43 15.982h6.508l.05-1.446h-11.213l-.433 12.817h12.86l.16-4.728h-8.156"/>
  <g>
    <path fill="#FFF" d="M200.21.885l-.1 2.92h-8.154l-.03.855-.222 6.604-.03.914h6.507l-.098 2.92h-6.507l-.03.855-.223 6.643-.03.914h8.154l-.1 2.96h-11.09l.865-25.585h11.09m.914-.885h-12.86l-.922 27.353h12.86l.16-4.728h-8.155l.224-6.643h6.51l.157-4.69h-6.508l.222-6.603h8.154l.158-4.69z"/>
  </g>
  <path fill="#FFF" d="M181.993.885c.515 0 .993.202 1.348.568.362.374.55.874.533 1.41l-.345 10.237c-.026.773-.503 1.48-1.214 1.803l-.6.272.088.652 1.432 10.642h-2.92l-1.434-10.606-.104-.766h-3.431l-.03.855-.354 10.516h-2.933L172.89.884h9.103m-6.55 11.293H180.625l.03-.855.222-6.604.03-.915h-5.18l-.03.855-.222 6.604-.03.914M181.992 0h-9.958l-.923 27.353h4.704l.384-11.37h1.803l1.537 11.37h4.704l-1.567-11.645c1.035-.47 1.697-1.485 1.734-2.58l.347-10.237c.055-1.6-1.196-2.89-2.764-2.89zm-5.634 11.293l.222-6.604h3.41l-.222 6.603h-3.41z"/>
  <g fill="#282D7F">
    <path d="M237.164 3.805h.352l.083-2.47h12.343l.015-.45h-12.696M242.33 5.17l.032-.914-.337-.45-.03.913-.735 21.75h.352"/>
  </g>
  <g fill="#282D7F">
    <path d="M223.83 23.51l.337.45h5.18l.03-.854.157-4.673 2.642-.604.018-.534-2.997.686-.157 4.673-.03.855h-4.264M221.438 25.918c-.162-.296-.25-.628-.24-.975l.73-21.57c.037-1.123.985-2.037 2.114-2.037h7.057c.51 0 .983.2 1.345.554-.08-.15-.175-.292-.297-.417-.366-.38-.86-.588-1.386-.588h-7.057c-1.128 0-2.077.914-2.115 2.037l-.728 21.57c-.018.522.173 1.017.538 1.394.012.012.026.02.038.032z"/>
    <path d="M229.982 5.17l.03-.914-.336-.45-.03.913-.126 3.696.355-.08"/>
  </g>
  <g fill="#282D7F">
    <path d="M205.07 3.373c.038-1.123.986-2.037 2.115-2.037h7.057c.51 0 .984.2 1.347.554-.082-.15-.176-.292-.298-.417-.367-.38-.86-.588-1.386-.588h-7.057c-1.13 0-2.078.914-2.116 2.037l-.795 23.547h.35l.78-23.097z"/>
    <path d="M212.792 15.017l.332-9.847.03-.914-.335-.452-.032.915-.333 9.846-.028.855h-5.18l.336.452h5.181M212.634 19.706l.03-.914-.336-.45-.03.913-.244 7.214h.352"/>
  </g>
  <g fill="#282D7F">
    <path d="M191.29 23.51l.338.45h7.802l.016-.45h-7.24M188.257 26.47h.352l.848-25.134h10.736l.015-.45h-11.09"/>
    <path d="M191.674 12.178l.337.45H198.167l.016-.45h-5.593"/>
  </g>
  <g fill="#282D7F">
    <path d="M180.96 12.63l.03-.856.223-6.604.03-.914-.336-.452-.03.915-.223 6.603-.03.855H175.445l.337.45h4.325"/>
    <path d="M173.228 1.336h9.102c.496 0 .956.19 1.306.533-.08-.15-.174-.292-.295-.417-.353-.367-.832-.568-1.347-.568h-9.102l-.863 25.584h.352l.848-25.134zM180.59 26.47l-1.373-10.155-.103-.766-.337-.452.104.766 1.434 10.605"/>
  </g>
</svg>
